<svg width="65" height="62" viewBox="0 0 65 62" fill="none" xmlns="http://www.w3.org/2000/svg">
<path fill-rule="evenodd" clip-rule="evenodd" d="M18.9587 15.3084C18.9587 8.2631 25.0215 2.55176 32.5003 2.55176C39.9792 2.55176 46.042 8.2631 46.042 15.3084C46.042 22.3537 39.9792 28.065 32.5003 28.065C25.0215 28.065 18.9587 22.3537 18.9587 15.3084ZM32.5003 7.65441C28.013 7.65441 24.3753 11.0812 24.3753 15.3084C24.3753 19.5356 28.013 22.9624 32.5003 22.9624C36.9876 22.9624 40.6253 19.5356 40.6253 15.3084C40.6253 11.0812 36.9876 7.65441 32.5003 7.65441Z" fill="#8E0000"/>
<path d="M11.0013 53.5783C12.3341 43.51 21.4514 35.719 32.5003 35.719C35.6537 35.719 38.6429 36.352 41.3385 37.4881L43.8107 38.53L46.0228 33.8723L43.5506 32.8303C40.1727 31.4067 36.4309 30.6164 32.5003 30.6164C17.5426 30.6164 5.41699 42.0391 5.41699 56.1297V58.681H38.8762V53.5783H11.0013Z" fill="#8E0000"/>
<path d="M54.167 38.2704V45.9243H62.292V51.027H54.167V58.681H48.7503V51.027H40.6253V45.9243H48.7503V38.2704H54.167Z" fill="#8E0000"/>
</svg>
