<svg width="65" height="65" viewBox="0 0 65 65" fill="none" xmlns="http://www.w3.org/2000/svg">
<path d="M33.6218 28.4372L24.375 37.684L17.8365 31.1455L21.6667 27.3153L24.375 30.0237L29.7917 24.607L33.6218 28.4372Z" fill="#8E0000"/>
<path d="M35.2083 28.4372H46.0417V33.8538H35.2083V28.4372Z" fill="#8E0000"/>
<path d="M33.6218 41.9788L24.375 51.2257L17.8365 44.6872L21.6667 40.857L24.375 43.5653L29.7917 38.1487L33.6218 41.9788Z" fill="#8E0000"/>
<path d="M35.2083 41.9788H46.0417V47.3955H35.2083V41.9788Z" fill="#8E0000"/>
<path fill-rule="evenodd" clip-rule="evenodd" d="M23.2532 2.70801H41.7468L46.0417 7.00285V8.12467H56.875V62.2913H8.125V8.12467H18.9583V7.00285L23.2532 2.70801ZM18.9583 13.5413H13.5417V56.8747H51.4583V13.5413H46.0417V18.958H18.9583V13.5413ZM40.625 9.2465L39.5032 8.12467H25.4968L24.375 9.2465V13.5413H40.625V9.2465Z" fill="#8E0000"/>
</svg>
