<svg width="65" height="65" viewBox="0 0 65 65" fill="none" xmlns="http://www.w3.org/2000/svg">
<path fill-rule="evenodd" clip-rule="evenodd" d="M48.7497 1.01562L64.0969 29.7917H33.4025L48.7497 1.01562ZM42.4302 24.375H55.0691L48.7497 12.526L42.4302 24.375Z" fill="#8E0000"/>
<path fill-rule="evenodd" clip-rule="evenodd" d="M2.70801 2.70833H29.7913V29.7917H2.70801V2.70833ZM8.12467 8.125V24.375H24.3747V8.125H8.12467Z" fill="#8E0000"/>
<path fill-rule="evenodd" clip-rule="evenodd" d="M2.70801 48.75C2.70801 41.2711 8.77082 35.2083 16.2497 35.2083C23.7285 35.2083 29.7913 41.2711 29.7913 48.75C29.7913 56.2289 23.7285 62.2917 16.2497 62.2917C8.77082 62.2917 2.70801 56.2289 2.70801 48.75ZM16.2497 40.625C11.7624 40.625 8.12467 44.2627 8.12467 48.75C8.12467 53.2373 11.7624 56.875 16.2497 56.875C20.737 56.875 24.3747 53.2373 24.3747 48.75C24.3747 44.2627 20.737 40.625 16.2497 40.625Z" fill="#8E0000"/>
<path d="M35.208 35.2083H62.2913V40.625H35.208V35.2083Z" fill="#8E0000"/>
<path d="M35.208 46.0417H62.2913V51.4583H35.208V46.0417Z" fill="#8E0000"/>
<path d="M35.208 56.875H62.2913V62.2917H35.208V56.875Z" fill="#8E0000"/>
</svg>
